<?xml version="1.0" encoding="UTF-8" standalone="no"?>
				  <svg
				  xmlns:rdf="http://www.w3.org/1999/02/22-rdf-syntax-ns#"
				  xmlns:svg="http://www.w3.org/2000/svg"
				  xmlns="http://www.w3.org/2000/svg"
				  xmlns:xlink="http://www.w3.org/1999/xlink"
				  version="1.1"  width="277" height="500">
<path style="fill:#000000; stroke:none;" d="M135 489L137 489C139.162 494.153 141.104 497.551 147 498L147 495C152.093 484.402 149.05 471.29 150.104 460C150.744 453.151 153.923 447.032 153.996 440C154.068 433.102 151.732 425.764 153.75 419C161.574 392.771 181.544 375.825 195.931 354C203.065 343.179 205.917 329.045 210.534 317C212.968 310.65 217.832 305.483 219.986 299C228.093 274.605 224.926 247.202 226.039 222C226.786 205.106 231.093 185.278 235.351 169C237.567 160.529 246.909 158.228 249.343 151.725C251.419 146.176 246.917 139.968 250.738 134.054C254.962 127.515 262.171 125.536 263.671 117C266.233 102.425 250.645 95.5602 253.378 82C255 73.9526 261.323 62.8813 265.817 56.0146C268.751 51.5318 273.906 48.3167 271.258 42.1844C268.48 35.7524 259.438 33.3147 254 29.9074C246.622 25.2848 238.402 23.3432 231.001 19.0447C219.218 12.2019 211.137 0.102661 195.29 7.34415C184.356 12.3405 182.739 29.8352 169.996 33.8951C160.85 36.8089 150.517 38.3176 142 42.9159C133.104 47.7187 120.516 63.9896 116.028 73C112.593 79.8957 113.324 88.3362 108.992 95.7145C99.7394 111.472 84.8456 124.322 74.9653 140C70.0448 147.808 71.6866 156.996 67.1211 165C60.3385 176.891 50.5543 186.924 44.0293 199C38.2479 209.7 35.2438 222.028 29.6273 233C25.0597 241.923 17.5917 250.382 14.6227 260C11.6951 269.484 15.4597 277.776 14.446 287C12.5655 304.113 2.63722 324.593 10.8241 342C14.5643 349.952 20.8619 360.537 27.0656 366.699C30.8147 370.423 37.3011 372.596 39.9907 377.105C48.1431 390.77 53.3944 405.1 65.0509 416.826C77.0763 428.922 98.2397 429.236 109.562 442.329C112.558 445.793 110.677 450.007 112.06 454C115.844 464.921 118.536 479.986 124.558 489.772C127.296 494.221 133.414 493.779 135 489z"/>
<path style="fill:#fee74c; stroke:none;" d="M140 47L140 50C132.683 57.2581 124.565 66.2695 120.158 75.6651C117.776 80.7448 120.885 84.6853 116 89L116 91C121.135 96.5545 127.046 103.456 134 106.721C143.332 111.103 161.324 110.34 168.397 119.278C170.796 122.309 170.836 128.268 172 132L174 132L178 132L178 130L179 129C203.205 151.731 247.346 151.177 260.03 116C264.247 104.306 250.079 96.509 249.224 85C248.394 73.8262 259.845 63.5206 261 52L264 52L269 49L269 47C261.914 31.9742 239.688 30.5043 227.039 23.4313C216.624 17.6069 211.694 4.73666 197.054 10.7423C192.449 12.6314 190.948 18.2314 188.316 22C184.988 26.7635 180.246 31.0548 176 35.0108C170.842 39.8166 164.251 38.9492 158 40.8357C151.883 42.6814 146.415 46.3429 140 47z"/>
<path style="fill:#908326; stroke:none;" d="M195 17L196 16C200.598 12.9352 206.593 13.0448 212 13L211 12C205.393 11.125 196.903 10.7328 195 17z"/>
<path style="fill:#857825; stroke:none;" d="M216 17C217.19 20.6765 218.077 22.3482 222 23L221 21L218 17L216 17z"/>
<path style="fill:#857924; stroke:none;" d="M188 26L187 27L177 37L178 38C182.649 35.4627 186.02 31.3265 189 27L188 26z"/>
<path style="fill:#8d8427; stroke:none;" d="M257 57L258 56C260.689 52.2065 263.036 49.5426 267 47L267 45C260.889 47.1108 257.444 50.3824 257 57z"/>
<path style="fill:#8a7c25; stroke:none;" d="M139 54L140 55L141 54L145 50L144 49C141.524 50.3391 140.48 51.5877 139 54z"/>
<path style="fill:#8f832a; stroke:none;" d="M135 57L135 60C132.864 61.5489 131.549 62.8643 130 65L131 66L132 65C134.037 62.7362 135.612 60.702 137 58C136.35 56.7003 136.853 57 135 57z"/>
<path style="fill:#9bc53d; stroke:none;" d="M114 93C111.934 106.536 92.08 121.483 84.4776 132.999C81.5027 137.506 77.143 142.802 75.6381 148C74.1415 153.17 75.4501 158.624 72.7863 163.576C66.7218 174.848 57.1904 184.14 50.4498 195C44.7561 204.173 40.9672 216.601 38 227L39 228L39 226C45.9449 224.346 54.9403 221.236 62 222.464C72.6691 224.319 85.1485 231.553 96 227L97 228L97 230L94 233L95 234L96 233L98 233L97 235C93.0345 238.271 92.219 241.99 92 247L94 247C99.0815 247 104.03 246.817 109 248L108 249C98.7755 249 84.8839 248.636 94 236L93 235C88.5845 239.203 88.9559 244.356 90 250L92 250C96.8322 250 102.513 249.169 106.999 251.279C114.747 254.922 117.142 263.714 124.044 267.698C129.811 271.026 142.571 273.299 148.715 269.987C153.444 267.437 156.127 262.315 160.255 259.104C164.372 255.903 169.931 253.774 173.157 249.532C179.654 240.989 171.698 235.302 171.127 227C170.328 215.402 178.733 200.118 181.526 189C183.008 183.102 180.74 177.156 188 175L188 173C186.085 158.846 182.314 154.72 194 143L193 142C183.795 139.067 179.235 134 169 134C168.847 130.442 169.164 123.616 166.972 120.702C160.493 112.087 141.912 112.416 133 108.001C125.555 104.312 121.379 96.4642 114 93z"/>
<path style="fill:#9b8f2e; stroke:none;" d="M249 95L249 97C251.187 101.283 257.247 106.083 257.407 110.996C257.566 115.846 250.352 122.717 248 127L249 128L250 127C259.614 115.071 261.603 105.958 249 95z"/>
<path style="fill:#8a8228; stroke:none;" d="M135 104L136 105L140 106L140 104L135 104z"/>
<path style="fill:#90892a; stroke:none;" d="M147 106L147 108L151 109L151 107L147 106z"/>
<path style="fill:#c3c3c3; stroke:none;" d="M190 177C181.705 177.646 185.096 185.066 182.871 191C179.262 200.628 174.005 215.67 174.009 226C174.012 233.817 180.84 240.21 176.142 247.996C167.815 261.799 149.681 266.386 143.071 282.981C140.922 288.378 148.208 290.169 152 291L152 293L151 294C132.696 297.303 126.666 328.645 131.09 343.83C133.229 351.171 139.12 360.422 138.898 367.996C138.622 377.411 125.779 383.042 122.032 391.005C113.372 409.408 127.963 441.659 149 445L149 443C149 417.661 155.686 399.663 170.545 378.961C179.734 366.158 191.411 356.907 197.522 341.961C201.367 332.553 203.622 322.365 208.107 313.039C211.949 305.053 217.018 297.986 218.738 289C223.237 265.507 218.538 241.223 222.615 218C226.012 198.647 226.307 159.248 247 150L247 148L245 143L243 143C235.134 143.005 229.403 147.498 222 147.941C209.075 148.716 192.855 134.909 186.654 155C184.462 162.102 189.979 169.643 190 177z"/>
<path style="fill:#565657; stroke:none;" d="M198 145L199 146L202 146L201 145L198 145z"/>
<path style="fill:#587323; stroke:none;" d="M179 179C178.993 189.804 173.476 198.906 173 210L174 209C176.888 201.289 182.302 186.87 179 179z"/>
<path style="fill:#3d3d3d; stroke:none;" d="M39 184L39 186L41 186L41 184L39 184z"/>
<path style="fill:#81757e; stroke:none;" d="M179 199L179 207L180 206C179.981 203.457 179.985 201.332 179 199z"/>
<path style="fill:#534c54; stroke:none;" d="M173 221L173 231L174 230C173.998 226.874 174.213 223.89 173 221z"/>
<path style="fill:#e55935; stroke:none;" d="M38 226L37 227L37 229C29.7128 238.422 17.8679 255.007 16.2909 267.004C15.3161 274.419 18.7927 281.416 17.6998 289C15.3088 305.593 9.17395 319.685 13.6096 337C15.3598 343.832 19.8855 348.891 23 355L25 355C31.8451 353.271 38.1582 357.196 45 356.856C51.4793 356.535 57.968 351.806 62.9992 348.076C71.9365 341.45 83.8296 329.737 89.1752 319.961C91.5606 315.598 89.8304 310.08 92.1613 306.385C95.896 300.465 102.715 298.922 107.147 294.186C114.289 286.552 117.727 277.849 128 273L128 271C118.659 269.751 116.775 260.711 109.961 255.568C101.968 249.535 79.4354 254.7 88.9198 237.005C90.0509 234.894 91.6656 232.984 93 231L92 230C80.1834 233.46 68.1385 224.034 56 225.105C50.0026 225.634 43.4163 230.082 38 226z"/>
<path style="fill:#495d1a; stroke:none;" d="M92 234C92.6498 235.3 92.1468 235 94 235L93 237C83.2415 249.687 101.306 249 109 249L108 248C103.276 246.018 97.0902 247 92 247L92 245C93.0063 240.386 94.7925 237.459 98 234L97 233L92 234z"/>
<path style="fill:#fb7921; stroke:none;" d="M25 356L25 358C30.3124 363.767 39.0462 368.054 43.3966 374.174C45.4182 377.017 45.2622 380.898 46.9282 384C52.6314 394.617 60.6156 407.621 69.8341 415.467C82.1546 425.953 103.473 427.426 113.427 441.015C119.217 448.918 121.512 466.272 124.254 476C125.815 481.537 126.01 487.716 132 490L132 487C137.246 484.363 140 486.898 142 492L144 492C147.508 477.271 145.224 461.902 148 447C141.93 446.113 138.711 441.763 134.275 437.924C130.83 434.943 126.234 432.695 123.56 428.946C120.679 424.905 121.736 420.492 120.687 416C118.606 407.089 114.749 400.471 119.075 391C122.846 382.743 135.356 377.753 135.926 367.961C136.411 359.617 130.017 350.083 127.924 342C123.945 326.636 131.379 299.217 147 293L146 292C137.296 284.006 143.51 283.665 145 274L143 274C130.179 273.992 121.947 276.538 113.302 287.171C111.202 289.754 110.944 293.215 108.683 295.671C104.975 299.696 99.0182 300.296 95.8935 305.044C93.0561 309.356 94.4565 314.745 91.8827 319.285C83.6881 333.741 62.9407 355.702 46 359.461C39.715 360.856 31.3002 356.926 25 356z"/>
<path style="fill:#272727; stroke:none;" d="M0 377L0 379L0 381L1 380L0 377z"/>
<path style="fill:#a8a8a5; stroke:none;" d="M48 403L48 405C48.6498 406.3 48.1468 406 50 406L51 405L50 404C49.3502 402.7 49.8532 403 48 403z"/>
<path style="fill:#525252; stroke:none;" d="M146 419L146 439L147 438C147 432.099 148.295 424.469 146 419z"/>
<path style="fill:#868681; stroke:none;" d="M135 489L135 491L137 490C136.35 488.7 136.853 489 135 489z"/>
</svg>
